<svg xmlns="http://www.w3.org/2000/svg" class="GLView UtilizationView" width="914" height="474" style="position: absolute; left: 0px; top: 0px; width: 914px; height: 474px;"><g class="chart" transform="translate(40,20)">
  <g class="background">
    <rect width="854" height="414" style="fill: rgba(0, 0, 0, 0); stroke: none; stroke-width: 1px; opacity: 1;"/>
    <line class="cursor" stroke-width="1px" style="stroke: rgb(242, 242, 242); display: none; stroke-width: 1px; opacity: 1;" y1="0" y2="414"/>
    <g class="yAxis" fill="none" font-size="10" font-family="sans-serif" text-anchor="end"><path class="domain" stroke="currentColor" d="M-6,414.5H0.5V0.5H-6" style="fill: none; stroke: rgb(33, 33, 33); stroke-width: 1px; opacity: 1;"/><g class="tick" opacity="1" transform="translate(0,414.5)"><line stroke="currentColor" x2="-6" style="stroke: rgb(33, 33, 33); stroke-width: 1px; opacity: 1;"/><text fill="currentColor" x="-9" dy="0.32em" style="fill: rgb(33, 33, 33); font-size: 9px; text-anchor: end; opacity: 1;">0.0</text></g><g class="tick" opacity="1" transform="translate(0,362.75)"><line stroke="currentColor" x2="-6" style="stroke: rgb(33, 33, 33); stroke-width: 1px; opacity: 1;"/><text fill="currentColor" x="-9" dy="0.32em" style="fill: rgb(33, 33, 33); font-size: 9px; text-anchor: end; opacity: 1;">0.5</text></g><g class="tick" opacity="1" transform="translate(0,311)"><line stroke="currentColor" x2="-6" style="stroke: rgb(33, 33, 33); stroke-width: 1px; opacity: 1;"/><text fill="currentColor" x="-9" dy="0.32em" style="fill: rgb(33, 33, 33); font-size: 9px; text-anchor: end; opacity: 1;">1.0</text></g><g class="tick" opacity="1" transform="translate(0,259.25)"><line stroke="currentColor" x2="-6" style="stroke: rgb(33, 33, 33); stroke-width: 1px; opacity: 1;"/><text fill="currentColor" x="-9" dy="0.32em" style="fill: rgb(33, 33, 33); font-size: 9px; text-anchor: end; opacity: 1;">1.5</text></g><g class="tick" opacity="1" transform="translate(0,207.5)"><line stroke="currentColor" x2="-6" style="stroke: rgb(33, 33, 33); stroke-width: 1px; opacity: 1;"/><text fill="currentColor" x="-9" dy="0.32em" style="fill: rgb(33, 33, 33); font-size: 9px; text-anchor: end; opacity: 1;">2.0</text></g><g class="tick" opacity="1" transform="translate(0,155.75)"><line stroke="currentColor" x2="-6" style="stroke: rgb(33, 33, 33); stroke-width: 1px; opacity: 1;"/><text fill="currentColor" x="-9" dy="0.32em" style="fill: rgb(33, 33, 33); font-size: 9px; text-anchor: end; opacity: 1;">2.5</text></g><g class="tick" opacity="1" transform="translate(0,104)"><line stroke="currentColor" x2="-6" style="stroke: rgb(33, 33, 33); stroke-width: 1px; opacity: 1;"/><text fill="currentColor" x="-9" dy="0.32em" style="fill: rgb(33, 33, 33); font-size: 9px; text-anchor: end; opacity: 1;">3.0</text></g><g class="tick" opacity="1" transform="translate(0,52.25)"><line stroke="currentColor" x2="-6" style="stroke: rgb(33, 33, 33); stroke-width: 1px; opacity: 1;"/><text fill="currentColor" x="-9" dy="0.32em" style="fill: rgb(33, 33, 33); font-size: 9px; text-anchor: end; opacity: 1;">3.5</text></g><g class="tick" opacity="1" transform="translate(0,0.5)"><line stroke="currentColor" x2="-6" style="stroke: rgb(33, 33, 33); stroke-width: 1px; opacity: 1;"/><text fill="currentColor" x="-9" dy="0.32em" style="fill: rgb(33, 33, 33); font-size: 9px; text-anchor: end; opacity: 1;">4.0</text></g></g>
    <text class="yAxisLabel" text-anchor="middle" transform="translate(-24,207) rotate(-90)" style="fill: rgb(33, 33, 33); font-size: 9px; text-anchor: middle; opacity: 1;">Utilization</text>
    <g class="xAxis" transform="translate(0, 414)" fill="none" font-size="10" font-family="sans-serif" text-anchor="middle"><path class="domain" stroke="currentColor" d="M0.5,6V0.5H854.5V6" style="fill: none; stroke: rgb(33, 33, 33); stroke-width: 1px; opacity: 1;"/><g class="tick" opacity="1" transform="translate(71.21836041816256,0)"><line stroke="currentColor" y2="6" style="stroke: rgb(33, 33, 33); stroke-width: 1px; opacity: 1;"/><text fill="currentColor" y="9" dy="0.71em" style="fill: rgb(33, 33, 33); font-size: 9px; text-anchor: middle; opacity: 1;">1,000,000</text></g><g class="tick" opacity="1" transform="translate(171.44705554148493,0)"><line stroke="currentColor" y2="6" style="stroke: rgb(33, 33, 33); stroke-width: 1px; opacity: 1;"/><text fill="currentColor" y="9" dy="0.71em" style="fill: rgb(33, 33, 33); font-size: 9px; text-anchor: middle; opacity: 1;">1,500,000</text></g><g class="tick" opacity="1" transform="translate(271.6757506648073,0)"><line stroke="currentColor" y2="6" style="stroke: rgb(33, 33, 33); stroke-width: 1px; opacity: 1;"/><text fill="currentColor" y="9" dy="0.71em" style="fill: rgb(33, 33, 33); font-size: 9px; text-anchor: middle; opacity: 1;">2,000,000</text></g><g class="tick" opacity="1" transform="translate(371.9044457881297,0)"><line stroke="currentColor" y2="6" style="stroke: rgb(33, 33, 33); stroke-width: 1px; opacity: 1;"/><text fill="currentColor" y="9" dy="0.71em" style="fill: rgb(33, 33, 33); font-size: 9px; text-anchor: middle; opacity: 1;">2,500,000</text></g><g class="tick" opacity="1" transform="translate(472.1331409114521,0)"><line stroke="currentColor" y2="6" style="stroke: rgb(33, 33, 33); stroke-width: 1px; opacity: 1;"/><text fill="currentColor" y="9" dy="0.71em" style="fill: rgb(33, 33, 33); font-size: 9px; text-anchor: middle; opacity: 1;">3,000,000</text></g><g class="tick" opacity="1" transform="translate(572.3618360347743,0)"><line stroke="currentColor" y2="6" style="stroke: rgb(33, 33, 33); stroke-width: 1px; opacity: 1;"/><text fill="currentColor" y="9" dy="0.71em" style="fill: rgb(33, 33, 33); font-size: 9px; text-anchor: middle; opacity: 1;">3,500,000</text></g><g class="tick" opacity="1" transform="translate(672.5905311580968,0)"><line stroke="currentColor" y2="6" style="stroke: rgb(33, 33, 33); stroke-width: 1px; opacity: 1;"/><text fill="currentColor" y="9" dy="0.71em" style="fill: rgb(33, 33, 33); font-size: 9px; text-anchor: middle; opacity: 1;">4,000,000</text></g><g class="tick" opacity="1" transform="translate(772.8192262814192,0)"><line stroke="currentColor" y2="6" style="stroke: rgb(33, 33, 33); stroke-width: 1px; opacity: 1;"/><text fill="currentColor" y="9" dy="0.71em" style="fill: rgb(33, 33, 33); font-size: 9px; text-anchor: middle; opacity: 1;">4,500,000</text></g></g>
    <text class="xAxisLabel" text-anchor="middle" x="427" y="446" style="fill: rgb(33, 33, 33); font-size: 9px; text-anchor: middle; opacity: 1;">Time in Nanoseconds</text>
  </g>
  <g class="totalUtilization">
    <path class="area" d="M0,207L1,207L2,207L3,207L4,207L5,207L6,207L7,207L8,347.5724594107036L9,285.89073777064954L10,207L11,207L12,207L13,207L14,207.0414995990377L15,207L16,207L17,207L18,207L19,207L20,207L21,207L22,207L23,217.6217678893566L24,295.39414595028063L25,207L26,207L27,207L28,207L29,207L30,246.87312086590498L31,207L32,207L33,207L34,241.23716920609462L35,207L36,207L37,207L38,207L39,207L40,207L41,207L42,207L43,207L44,207L45,207L46,207L47,249.15514131088395L48,207L49,207L50,207L51,207L52,207L53,207L54,207L55,207L56,207L57,207L58,207L59,207L60,257.45339747444376L61,207L62,207L63,207L64,207L65,207L66,207L67,207L68,207L69,207L70,207L71,255.5862898376428L72,414L73,414L74,414L75,414L76,414L77,414L78,414L79,414L80,414L81,414L82,299.19362597714974L83,53.40998396150759L84,0L85,0L86,0L87,0L88,0L89,0L90,0L91,0L92,0L93,0L94,0L95,0L96,0L97,0L98,0L99,0L100,0L101,0L102,0L103,0L104,0L105,0L106,0L107,0L108,0L109,0L110,0L111,0L112,0L113,0L114,0L115,0L116,0L117,0L118,0L119,0L120,0L121,0L122,0L123,0L124,0L125,0L126,0L127,0L128,0L129,0L130,0L131,0L132,0L133,0L134,0L135,0L136,0L137,0L138,0L139,0L140,0L141,0L142,0L143,0L144,0L145,0L146,0L147,0L148,0L149,0L150,0L151,0L152,0L153,0L154,0L155,0L156,0L157,0L158,0L159,0L160,0L161,0L162,0L163,0L164,0L165,52.942874323511745L166,12.802626303127525L167,103.5L168,103.5L169,103.5L170,103.5L171,103.5L172,103.5L173,103.5L174,103.5L175,103.5L176,103.5L177,103.5L178,103.5L179,103.5L180,103.5L181,103.5L182,103.5L183,103.5L184,103.5L185,103.5L186,103.5L187,103.5L188,139.60465116279067L189,103.5L190,103.5L191,103.5L192,161.15213469633193L193,130.28799117882917L194,103.5L195,103.5L196,103.5L197,114.24624173180999L198,192.28839214113876L199,146.75466025255562L200,203.1820368885325L201,207L202,207L203,207L204,241.56223692122668L205,207L206,207L207,207L208,207L209,207L210,207L211,207L212,207L213,207L214,207L215,240.8221732157177L216,207L217,207L218,207L219,207L220,207L221,207L222,207L223,207L224,207L225,207L226,207L227,207L228,207L229,234.34275405892967L230,414L231,414L232,338.84422614274257L233,234.5917017438364L234,207L235,207L236,207L237,207L238,207L239,207L240,207L241,207L242,207L243,207L244,207L245,207L246,290.60493084786526L247,207L248,144.2236921226699L249,103.5L250,103.5L251,103.5L252,103.5L253,103.5L254,103.5L255,103.5L256,103.5L257,103.5L258,103.5L259,103.5L260,103.5L261,103.5L262,103.5L263,103.5L264,103.5L265,103.5L266,103.5L267,103.5L268,103.5L269,103.5L270,103.5L271,103.5L272,103.5L273,103.5L274,103.5L275,103.5L276,103.5L277,103.5L278,103.5L279,103.5L280,103.5L281,103.5L282,103.5L283,103.5L284,103.5L285,103.5L286,103.5L287,103.5L288,103.5L289,103.5L290,103.5L291,103.5L292,103.5L293,103.5L294,103.5L295,103.5L296,103.5L297,103.5L298,103.5L299,103.5L300,103.5L301,103.5L302,103.5L303,103.5L304,103.5L305,103.5L306,103.5L307,103.5L308,103.5L309,103.5L310,103.5L311,103.5L312,103.5L313,103.5L314,103.5L315,103.5L316,103.5L317,103.5L318,103.5L319,103.5L320,103.5L321,103.5L322,103.5L323,103.5L324,103.5L325,103.5L326,103.5L327,103.5L328,103.5L329,103.5L330,103.5L331,103.5L332,103.5L333,103.5L334,103.5L335,103.5L336,103.5L337,103.5L338,121.29975947083585L339,293.9034876728803L340,310.5L341,310.5L342,310.5L343,299.75375826819L344,140.48947684906793L345,103.5L346,103.5L347,103.5L348,103.5L349,103.5L350,103.5L351,103.5L352,103.5L353,103.5L354,215.9431635926223L355,121.15453998797356L356,187.81028262176787L357,207L358,207L359,258.7914995990377L360,135.36530366806974L361,169.72008418520744L362,139.33490376904572L363,207L364,207L365,207L366,207L367,302.2415797914996L368,207L369,207L370,207L371,207L372,207L373,207L374,207L375,207L376,207L377,207L378,207L379,207L380,231.91551413108843L381,103.5L382,103.5L383,103.5L384,103.5L385,143.7257967528563L386,103.5L387,103.5L388,103.5L389,103.5L390,194.40739627179798L391,149.44005613472333L392,139.72188815393866L393,204.63452285485167L394,207L395,207L396,245.84362469927825L397,207L398,207L399,207L400,207L401,207L402,207L403,207L404,207L405,207L406,207L407,207L408,207L409,207L410,207L411,207L412,207L413,207L414,207L415,207L416,207L417,207L418,207L419,207L420,207L421,207L422,207L423,207L424,207L425,207L426,207L427,207L428,207L429,207L430,207L431,207L432,207L433,207L434,207L435,207L436,207L437,207L438,207L439,207L440,207L441,207L442,207L443,207L444,207L445,207L446,207L447,207L448,207L449,207L450,207L451,207L452,207L453,207L454,207L455,207L456,207L457,207L458,207L459,207L460,207L461,207L462,207L463,207L464,207L465,207L466,207L467,207L468,207L469,207L470,207L471,207L472,207L473,207L474,207L475,207L476,207L477,207L478,207L479,207L480,207L481,207L482,207L483,207L484,207L485,207L486,207L487,207L488,238.09771497294048L489,133.25521251002402L490,205.85898977751054L491,207L492,207L493,207L494,207L495,207L496,207L497,207L498,207L499,207L500,207L501,207L502,207L503,207L504,207L505,207L506,207L507,207L508,207L509,207L510,207L511,207L512,207L513,207L514,207L515,207L516,207L517,207L518,207L519,207L520,207L521,207L522,207L523,207L524,207L525,207L526,207L527,207L528,207L529,207L530,207L531,207L532,207L533,207L534,207L535,207L536,207L537,207L538,207L539,207L540,207L541,207L542,207L543,207L544,207L545,207L546,207L547,207L548,207L549,207L550,207L551,207L552,207L553,207L554,207L555,207L556,207L557,207L558,207L559,207L560,207L561,207L562,207L563,207L564,207L565,207L566,207L567,207L568,207L569,207L570,207L571,243.96873120865905L572,207L573,207L574,207L575,207L576,207L577,202.5180433039294L578,201.44016837041488L579,207L580,207L581,207L582,207L583,207L584,207L585,254.88093806374022L586,166.23481659651233L587,207L588,207L589,207L590,207L591,243.05592303066746L592,207L593,207L594,207L595,207L596,207L597,207L598,207L599,207L600,207L601,207L602,207L603,265.9591100420926L604,199.8828187650361L605,103.5L606,103.5L607,103.5L608,171.8153938665063L609,207L610,207L611,207L612,264.3409500901984L613,168.66205652435355L614,207L615,207L616,207L617,207L618,207L619,207L620,283.09500901984364L621,414L622,414L623,414L624,197.5607336139507L625,103.5L626,103.5L627,103.5L628,103.5L629,92.8367408298256L630,168.86951292844256L631,263.5639534883721L632,207L633,179.40276663993583L634,161.35959110042094L635,207L636,207L637,207L638,207L639,254.8394467829224L640,207L641,207L642,207L643,207L644,207L645,207L646,140.74589013632718L647,207L648,207L649,207L650,249.45408981555732L651,207L652,207L653,207L654,207L655,207L656,207L657,207L658,207L659,207L660,207L661,207L662,207L663,212.85144346431437L664,414L665,414L666,414L667,399.76849067949485L668,197.49659182036888L669,207L670,207L671,207L672,207L673,207L674,173.2260974143115L675,139.64615076182838L676,207L677,207L678,207L679,264.8803367408298L680,414L681,414L682,414L683,414L684,414L685,414L686,345.9128081779916L687,207L688,201.5024052916416L689,145.26097414311482L690,207L691,207L692,207L693,207L694,207L695,207L696,207L697,207L698,207L699,207L700,207L701,207L702,207L703,207L704,207L705,207L706,207L707,207L708,207L709,207L710,207L711,207L712,207L713,207L714,207L715,207L716,207L717,207L718,207L719,207L720,207L721,207L722,207L723,207L724,207L725,207L726,207L727,207L728,207L729,207L730,207L731,207L732,207L733,207L734,207L735,207L736,207L737,207L738,207L739,207L740,207L741,207L742,207L743,207L744,207L745,207L746,207L747,207L748,207L749,207L750,207L751,207L752,207L753,207L754,207L755,207L756,207L757,207L758,207L759,207L760,207L761,207L762,207L763,207L764,207L765,207L766,207L767,207L768,207L769,207L770,207L771,207L772,207L773,207L774,207L775,207L776,207L777,263.59410703547803L778,207L779,207L780,207L781,207L782,286.95369813589895L783,414L784,414L785,414L786,353.5886951292845L787,207L788,207L789,207L790,207L791,207L792,207L793,207L794,207L795,129.02225340817964L796,268.0336740829826L797,207L798,135.36530366806974L799,207L800,207L801,207L802,207L803,207L804,207L805,207L806,207L807,207L808,207L809,207L810,207L811,232.30968129885747L812,233.06174819566962L813,207L814,207L815,182.6031268791341L816,103.5L817,103.5L818,103.5L819,92.33660785886126L820,356.0159350571257L821,378.2760072158749L822,378.8083400160385L823,414L824,414L825,414L826,414L827,414L828,414L829,414L830,414L831,414L832,414L833,414L834,414L835,347.26127480457006L836,414L837,414L838,414L839,414L840,414L841,414L842,414L843,414L844,414L845,414L846,414L847,414L848,414L849,414L850,414L851,414L852,414L853,345.10372820204446L853,414L852,414L851,414L850,414L849,414L848,414L847,414L846,414L845,414L844,414L843,414L842,414L841,414L840,414L839,414L838,414L837,414L836,414L835,414L834,414L833,414L832,414L831,414L830,414L829,414L828,414L827,414L826,414L825,414L824,414L823,414L822,414L821,414L820,414L819,414L818,414L817,414L816,414L815,414L814,414L813,414L812,414L811,414L810,414L809,414L808,414L807,414L806,414L805,414L804,414L803,414L802,414L801,414L800,414L799,414L798,414L797,414L796,414L795,414L794,414L793,414L792,414L791,414L790,414L789,414L788,414L787,414L786,414L785,414L784,414L783,414L782,414L781,414L780,414L779,414L778,414L777,414L776,414L775,414L774,414L773,414L772,414L771,414L770,414L769,414L768,414L767,414L766,414L765,414L764,414L763,414L762,414L761,414L760,414L759,414L758,414L757,414L756,414L755,414L754,414L753,414L752,414L751,414L750,414L749,414L748,414L747,414L746,414L745,414L744,414L743,414L742,414L741,414L740,414L739,414L738,414L737,414L736,414L735,414L734,414L733,414L732,414L731,414L730,414L729,414L728,414L727,414L726,414L725,414L724,414L723,414L722,414L721,414L720,414L719,414L718,414L717,414L716,414L715,414L714,414L713,414L712,414L711,414L710,414L709,414L708,414L707,414L706,414L705,414L704,414L703,414L702,414L701,414L700,414L699,414L698,414L697,414L696,414L695,414L694,414L693,414L692,414L691,414L690,414L689,414L688,414L687,414L686,414L685,414L684,414L683,414L682,414L681,414L680,414L679,414L678,414L677,414L676,414L675,414L674,414L673,414L672,414L671,414L670,414L669,414L668,414L667,414L666,414L665,414L664,414L663,414L662,414L661,414L660,414L659,414L658,414L657,414L656,414L655,414L654,414L653,414L652,414L651,414L650,414L649,414L648,414L647,414L646,414L645,414L644,414L643,414L642,414L641,414L640,414L639,414L638,414L637,414L636,414L635,414L634,414L633,414L632,414L631,414L630,414L629,414L628,414L627,414L626,414L625,414L624,414L623,414L622,414L621,414L620,414L619,414L618,414L617,414L616,414L615,414L614,414L613,414L612,414L611,414L610,414L609,414L608,414L607,414L606,414L605,414L604,414L603,414L602,414L601,414L600,414L599,414L598,414L597,414L596,414L595,414L594,414L593,414L592,414L591,414L590,414L589,414L588,414L587,414L586,414L585,414L584,414L583,414L582,414L581,414L580,414L579,414L578,414L577,414L576,414L575,414L574,414L573,414L572,414L571,414L570,414L569,414L568,414L567,414L566,414L565,414L564,414L563,414L562,414L561,414L560,414L559,414L558,414L557,414L556,414L555,414L554,414L553,414L552,414L551,414L550,414L549,414L548,414L547,414L546,414L545,414L544,414L543,414L542,414L541,414L540,414L539,414L538,414L537,414L536,414L535,414L534,414L533,414L532,414L531,414L530,414L529,414L528,414L527,414L526,414L525,414L524,414L523,414L522,414L521,414L520,414L519,414L518,414L517,414L516,414L515,414L514,414L513,414L512,414L511,414L510,414L509,414L508,414L507,414L506,414L505,414L504,414L503,414L502,414L501,414L500,414L499,414L498,414L497,414L496,414L495,414L494,414L493,414L492,414L491,414L490,414L489,414L488,414L487,414L486,414L485,414L484,414L483,414L482,414L481,414L480,414L479,414L478,414L477,414L476,414L475,414L474,414L473,414L472,414L471,414L470,414L469,414L468,414L467,414L466,414L465,414L464,414L463,414L462,414L461,414L460,414L459,414L458,414L457,414L456,414L455,414L454,414L453,414L452,414L451,414L450,414L449,414L448,414L447,414L446,414L445,414L444,414L443,414L442,414L441,414L440,414L439,414L438,414L437,414L436,414L435,414L434,414L433,414L432,414L431,414L430,414L429,414L428,414L427,414L426,414L425,414L424,414L423,414L422,414L421,414L420,414L419,414L418,414L417,414L416,414L415,414L414,414L413,414L412,414L411,414L410,414L409,414L408,414L407,414L406,414L405,414L404,414L403,414L402,414L401,414L400,414L399,414L398,414L397,414L396,414L395,414L394,414L393,414L392,414L391,414L390,414L389,414L388,414L387,414L386,414L385,414L384,414L383,414L382,414L381,414L380,414L379,414L378,414L377,414L376,414L375,414L374,414L373,414L372,414L371,414L370,414L369,414L368,414L367,414L366,414L365,414L364,414L363,414L362,414L361,414L360,414L359,414L358,414L357,414L356,414L355,414L354,414L353,414L352,414L351,414L350,414L349,414L348,414L347,414L346,414L345,414L344,414L343,414L342,414L341,414L340,414L339,414L338,414L337,414L336,414L335,414L334,414L333,414L332,414L331,414L330,414L329,414L328,414L327,414L326,414L325,414L324,414L323,414L322,414L321,414L320,414L319,414L318,414L317,414L316,414L315,414L314,414L313,414L312,414L311,414L310,414L309,414L308,414L307,414L306,414L305,414L304,414L303,414L302,414L301,414L300,414L299,414L298,414L297,414L296,414L295,414L294,414L293,414L292,414L291,414L290,414L289,414L288,414L287,414L286,414L285,414L284,414L283,414L282,414L281,414L280,414L279,414L278,414L277,414L276,414L275,414L274,414L273,414L272,414L271,414L270,414L269,414L268,414L267,414L266,414L265,414L264,414L263,414L262,414L261,414L260,414L259,414L258,414L257,414L256,414L255,414L254,414L253,414L252,414L251,414L250,414L249,414L248,414L247,414L246,414L245,414L244,414L243,414L242,414L241,414L240,414L239,414L238,414L237,414L236,414L235,414L234,414L233,414L232,414L231,414L230,414L229,414L228,414L227,414L226,414L225,414L224,414L223,414L222,414L221,414L220,414L219,414L218,414L217,414L216,414L215,414L214,414L213,414L212,414L211,414L210,414L209,414L208,414L207,414L206,414L205,414L204,414L203,414L202,414L201,414L200,414L199,414L198,414L197,414L196,414L195,414L194,414L193,414L192,414L191,414L190,414L189,414L188,414L187,414L186,414L185,414L184,414L183,414L182,414L181,414L180,414L179,414L178,414L177,414L176,414L175,414L174,414L173,414L172,414L171,414L170,414L169,414L168,414L167,414L166,414L165,414L164,414L163,414L162,414L161,414L160,414L159,414L158,414L157,414L156,414L155,414L154,414L153,414L152,414L151,414L150,414L149,414L148,414L147,414L146,414L145,414L144,414L143,414L142,414L141,414L140,414L139,414L138,414L137,414L136,414L135,414L134,414L133,414L132,414L131,414L130,414L129,414L128,414L127,414L126,414L125,414L124,414L123,414L122,414L121,414L120,414L119,414L118,414L117,414L116,414L115,414L114,414L113,414L112,414L111,414L110,414L109,414L108,414L107,414L106,414L105,414L104,414L103,414L102,414L101,414L100,414L99,414L98,414L97,414L96,414L95,414L94,414L93,414L92,414L91,414L90,414L89,414L88,414L87,414L86,414L85,414L84,414L83,414L82,414L81,414L80,414L79,414L78,414L77,414L76,414L75,414L74,414L73,414L72,414L71,414L70,414L69,414L68,414L67,414L66,414L65,414L64,414L63,414L62,414L61,414L60,414L59,414L58,414L57,414L56,414L55,414L54,414L53,414L52,414L51,414L50,414L49,414L48,414L47,414L46,414L45,414L44,414L43,414L42,414L41,414L40,414L39,414L38,414L37,414L36,414L35,414L34,414L33,414L32,414L31,414L30,414L29,414L28,414L27,414L26,414L25,414L24,414L23,414L22,414L21,414L20,414L19,414L18,414L17,414L16,414L15,414L14,414L13,414L12,414L11,414L10,414L9,414L8,414L7,414L6,414L5,414L4,414L3,414L2,414L1,414L0,414Z" style="fill: rgb(191, 191, 191); stroke: none; stroke-width: 1px; opacity: 1;"/>
    <path class="outline" d="M0,207L1,207L2,207L3,207L4,207L5,207L6,207L7,207L8,347.5724594107036L9,285.89073777064954L10,207L11,207L12,207L13,207L14,207.0414995990377L15,207L16,207L17,207L18,207L19,207L20,207L21,207L22,207L23,217.6217678893566L24,295.39414595028063L25,207L26,207L27,207L28,207L29,207L30,246.87312086590498L31,207L32,207L33,207L34,241.23716920609462L35,207L36,207L37,207L38,207L39,207L40,207L41,207L42,207L43,207L44,207L45,207L46,207L47,249.15514131088395L48,207L49,207L50,207L51,207L52,207L53,207L54,207L55,207L56,207L57,207L58,207L59,207L60,257.45339747444376L61,207L62,207L63,207L64,207L65,207L66,207L67,207L68,207L69,207L70,207L71,255.5862898376428L72,414L73,414L74,414L75,414L76,414L77,414L78,414L79,414L80,414L81,414L82,299.19362597714974L83,53.40998396150759L84,0L85,0L86,0L87,0L88,0L89,0L90,0L91,0L92,0L93,0L94,0L95,0L96,0L97,0L98,0L99,0L100,0L101,0L102,0L103,0L104,0L105,0L106,0L107,0L108,0L109,0L110,0L111,0L112,0L113,0L114,0L115,0L116,0L117,0L118,0L119,0L120,0L121,0L122,0L123,0L124,0L125,0L126,0L127,0L128,0L129,0L130,0L131,0L132,0L133,0L134,0L135,0L136,0L137,0L138,0L139,0L140,0L141,0L142,0L143,0L144,0L145,0L146,0L147,0L148,0L149,0L150,0L151,0L152,0L153,0L154,0L155,0L156,0L157,0L158,0L159,0L160,0L161,0L162,0L163,0L164,0L165,52.942874323511745L166,12.802626303127525L167,103.5L168,103.5L169,103.5L170,103.5L171,103.5L172,103.5L173,103.5L174,103.5L175,103.5L176,103.5L177,103.5L178,103.5L179,103.5L180,103.5L181,103.5L182,103.5L183,103.5L184,103.5L185,103.5L186,103.5L187,103.5L188,139.60465116279067L189,103.5L190,103.5L191,103.5L192,161.15213469633193L193,130.28799117882917L194,103.5L195,103.5L196,103.5L197,114.24624173180999L198,192.28839214113876L199,146.75466025255562L200,203.1820368885325L201,207L202,207L203,207L204,241.56223692122668L205,207L206,207L207,207L208,207L209,207L210,207L211,207L212,207L213,207L214,207L215,240.8221732157177L216,207L217,207L218,207L219,207L220,207L221,207L222,207L223,207L224,207L225,207L226,207L227,207L228,207L229,234.34275405892967L230,414L231,414L232,338.84422614274257L233,234.5917017438364L234,207L235,207L236,207L237,207L238,207L239,207L240,207L241,207L242,207L243,207L244,207L245,207L246,290.60493084786526L247,207L248,144.2236921226699L249,103.5L250,103.5L251,103.5L252,103.5L253,103.5L254,103.5L255,103.5L256,103.5L257,103.5L258,103.5L259,103.5L260,103.5L261,103.5L262,103.5L263,103.5L264,103.5L265,103.5L266,103.5L267,103.5L268,103.5L269,103.5L270,103.5L271,103.5L272,103.5L273,103.5L274,103.5L275,103.5L276,103.5L277,103.5L278,103.5L279,103.5L280,103.5L281,103.5L282,103.5L283,103.5L284,103.5L285,103.5L286,103.5L287,103.5L288,103.5L289,103.5L290,103.5L291,103.5L292,103.5L293,103.5L294,103.5L295,103.5L296,103.5L297,103.5L298,103.5L299,103.5L300,103.5L301,103.5L302,103.5L303,103.5L304,103.5L305,103.5L306,103.5L307,103.5L308,103.5L309,103.5L310,103.5L311,103.5L312,103.5L313,103.5L314,103.5L315,103.5L316,103.5L317,103.5L318,103.5L319,103.5L320,103.5L321,103.5L322,103.5L323,103.5L324,103.5L325,103.5L326,103.5L327,103.5L328,103.5L329,103.5L330,103.5L331,103.5L332,103.5L333,103.5L334,103.5L335,103.5L336,103.5L337,103.5L338,121.29975947083585L339,293.9034876728803L340,310.5L341,310.5L342,310.5L343,299.75375826819L344,140.48947684906793L345,103.5L346,103.5L347,103.5L348,103.5L349,103.5L350,103.5L351,103.5L352,103.5L353,103.5L354,215.9431635926223L355,121.15453998797356L356,187.81028262176787L357,207L358,207L359,258.7914995990377L360,135.36530366806974L361,169.72008418520744L362,139.33490376904572L363,207L364,207L365,207L366,207L367,302.2415797914996L368,207L369,207L370,207L371,207L372,207L373,207L374,207L375,207L376,207L377,207L378,207L379,207L380,231.91551413108843L381,103.5L382,103.5L383,103.5L384,103.5L385,143.7257967528563L386,103.5L387,103.5L388,103.5L389,103.5L390,194.40739627179798L391,149.44005613472333L392,139.72188815393866L393,204.63452285485167L394,207L395,207L396,245.84362469927825L397,207L398,207L399,207L400,207L401,207L402,207L403,207L404,207L405,207L406,207L407,207L408,207L409,207L410,207L411,207L412,207L413,207L414,207L415,207L416,207L417,207L418,207L419,207L420,207L421,207L422,207L423,207L424,207L425,207L426,207L427,207L428,207L429,207L430,207L431,207L432,207L433,207L434,207L435,207L436,207L437,207L438,207L439,207L440,207L441,207L442,207L443,207L444,207L445,207L446,207L447,207L448,207L449,207L450,207L451,207L452,207L453,207L454,207L455,207L456,207L457,207L458,207L459,207L460,207L461,207L462,207L463,207L464,207L465,207L466,207L467,207L468,207L469,207L470,207L471,207L472,207L473,207L474,207L475,207L476,207L477,207L478,207L479,207L480,207L481,207L482,207L483,207L484,207L485,207L486,207L487,207L488,238.09771497294048L489,133.25521251002402L490,205.85898977751054L491,207L492,207L493,207L494,207L495,207L496,207L497,207L498,207L499,207L500,207L501,207L502,207L503,207L504,207L505,207L506,207L507,207L508,207L509,207L510,207L511,207L512,207L513,207L514,207L515,207L516,207L517,207L518,207L519,207L520,207L521,207L522,207L523,207L524,207L525,207L526,207L527,207L528,207L529,207L530,207L531,207L532,207L533,207L534,207L535,207L536,207L537,207L538,207L539,207L540,207L541,207L542,207L543,207L544,207L545,207L546,207L547,207L548,207L549,207L550,207L551,207L552,207L553,207L554,207L555,207L556,207L557,207L558,207L559,207L560,207L561,207L562,207L563,207L564,207L565,207L566,207L567,207L568,207L569,207L570,207L571,243.96873120865905L572,207L573,207L574,207L575,207L576,207L577,202.5180433039294L578,201.44016837041488L579,207L580,207L581,207L582,207L583,207L584,207L585,254.88093806374022L586,166.23481659651233L587,207L588,207L589,207L590,207L591,243.05592303066746L592,207L593,207L594,207L595,207L596,207L597,207L598,207L599,207L600,207L601,207L602,207L603,265.9591100420926L604,199.8828187650361L605,103.5L606,103.5L607,103.5L608,171.8153938665063L609,207L610,207L611,207L612,264.3409500901984L613,168.66205652435355L614,207L615,207L616,207L617,207L618,207L619,207L620,283.09500901984364L621,414L622,414L623,414L624,197.5607336139507L625,103.5L626,103.5L627,103.5L628,103.5L629,92.8367408298256L630,168.86951292844256L631,263.5639534883721L632,207L633,179.40276663993583L634,161.35959110042094L635,207L636,207L637,207L638,207L639,254.8394467829224L640,207L641,207L642,207L643,207L644,207L645,207L646,140.74589013632718L647,207L648,207L649,207L650,249.45408981555732L651,207L652,207L653,207L654,207L655,207L656,207L657,207L658,207L659,207L660,207L661,207L662,207L663,212.85144346431437L664,414L665,414L666,414L667,399.76849067949485L668,197.49659182036888L669,207L670,207L671,207L672,207L673,207L674,173.2260974143115L675,139.64615076182838L676,207L677,207L678,207L679,264.8803367408298L680,414L681,414L682,414L683,414L684,414L685,414L686,345.9128081779916L687,207L688,201.5024052916416L689,145.26097414311482L690,207L691,207L692,207L693,207L694,207L695,207L696,207L697,207L698,207L699,207L700,207L701,207L702,207L703,207L704,207L705,207L706,207L707,207L708,207L709,207L710,207L711,207L712,207L713,207L714,207L715,207L716,207L717,207L718,207L719,207L720,207L721,207L722,207L723,207L724,207L725,207L726,207L727,207L728,207L729,207L730,207L731,207L732,207L733,207L734,207L735,207L736,207L737,207L738,207L739,207L740,207L741,207L742,207L743,207L744,207L745,207L746,207L747,207L748,207L749,207L750,207L751,207L752,207L753,207L754,207L755,207L756,207L757,207L758,207L759,207L760,207L761,207L762,207L763,207L764,207L765,207L766,207L767,207L768,207L769,207L770,207L771,207L772,207L773,207L774,207L775,207L776,207L777,263.59410703547803L778,207L779,207L780,207L781,207L782,286.95369813589895L783,414L784,414L785,414L786,353.5886951292845L787,207L788,207L789,207L790,207L791,207L792,207L793,207L794,207L795,129.02225340817964L796,268.0336740829826L797,207L798,135.36530366806974L799,207L800,207L801,207L802,207L803,207L804,207L805,207L806,207L807,207L808,207L809,207L810,207L811,232.30968129885747L812,233.06174819566962L813,207L814,207L815,182.6031268791341L816,103.5L817,103.5L818,103.5L819,92.33660785886126L820,356.0159350571257L821,378.2760072158749L822,378.8083400160385L823,414L824,414L825,414L826,414L827,414L828,414L829,414L830,414L831,414L832,414L833,414L834,414L835,347.26127480457006L836,414L837,414L838,414L839,414L840,414L841,414L842,414L843,414L844,414L845,414L846,414L847,414L848,414L849,414L850,414L851,414L852,414L853,345.10372820204446" style="fill: none; stroke: rgb(84, 84, 84); stroke-width: 1px; opacity: 1;"/>
  </g>
  <g class="selectionUtilization" style="display:none">
    <path class="area" style="fill: rgb(230, 171, 2); stroke: none; stroke-width: 1px; opacity: 1;"/>
    <path class="outline" style="fill: none; stroke: rgb(166, 123, 0); stroke-width: 1px; opacity: 1;"/>
  </g>
  <g class="brush">
    <rect class="area" x="0" y="0" width="854" height="414" style="fill: rgb(209, 209, 209); stroke: none; stroke-width: 1px; opacity: 0.25;"/>
    <line class="top outline" y1="0" y2="0" x1="0" x2="854" style="stroke: rgb(145, 145, 145); stroke-width: 1px; opacity: 1;"/>
    <line class="bottom outline" y1="414" y2="414" x1="0" x2="854" style="stroke: rgb(145, 145, 145); stroke-width: 1px; opacity: 1;"/>
    <g class="leftHandle">
      <line class="outline" x1="0" x2="0" y1="0" y2="414" style="stroke: rgb(145, 145, 145); stroke-width: 1px; opacity: 1;"/>
      <rect class="hoverTarget" x="-8" width="16" y="0" height="414" style="fill: rgba(0, 0, 0, 0); stroke: none; stroke-width: 1px; opacity: 1;"/>
    </g>
    <g class="rightHandle">
      <line class="outline" x1="854" x2="854" y1="0" y2="414" style="stroke: rgb(145, 145, 145); stroke-width: 1px; opacity: 1;"/>
      <rect class="hoverTarget" x="846" width="16" y="0" height="414" style="fill: rgba(0, 0, 0, 0); stroke: none; stroke-width: 1px; opacity: 1;"/>
    </g>
  </g>
</g>
</svg>