<svg xmlns="http://www.w3.org/2000/svg" class="GLView UtilizationView" width="914" height="474" style="position: absolute; left: 0px; top: 0px; width: 914px; height: 474px;"><g class="chart" transform="translate(40,20)">
  <g class="background">
    <rect width="854" height="414" style="fill: rgba(0, 0, 0, 0); stroke: none; stroke-width: 1px; opacity: 1;"/>
    <line class="cursor" stroke-width="1px" style="stroke: rgb(242, 242, 242); display: none; stroke-width: 1px; opacity: 1;" y1="0" y2="414"/>
    <g class="yAxis" fill="none" font-size="10" font-family="sans-serif" text-anchor="end"><path class="domain" stroke="currentColor" d="M-6,414.5H0.5V0.5H-6" style="fill: none; stroke: rgb(33, 33, 33); stroke-width: 1px; opacity: 1;"/><g class="tick" opacity="1" transform="translate(0,414.5)"><line stroke="currentColor" x2="-6" style="stroke: rgb(33, 33, 33); stroke-width: 1px; opacity: 1;"/><text fill="currentColor" x="-9" dy="0.32em" style="fill: rgb(33, 33, 33); font-size: 9px; text-anchor: end; opacity: 1;">0.0</text></g><g class="tick" opacity="1" transform="translate(0,386.90000000000003)"><line stroke="currentColor" x2="-6" style="stroke: rgb(33, 33, 33); stroke-width: 1px; opacity: 1;"/><text fill="currentColor" x="-9" dy="0.32em" style="fill: rgb(33, 33, 33); font-size: 9px; text-anchor: end; opacity: 1;">0.2</text></g><g class="tick" opacity="1" transform="translate(0,359.3)"><line stroke="currentColor" x2="-6" style="stroke: rgb(33, 33, 33); stroke-width: 1px; opacity: 1;"/><text fill="currentColor" x="-9" dy="0.32em" style="fill: rgb(33, 33, 33); font-size: 9px; text-anchor: end; opacity: 1;">0.4</text></g><g class="tick" opacity="1" transform="translate(0,331.70000000000005)"><line stroke="currentColor" x2="-6" style="stroke: rgb(33, 33, 33); stroke-width: 1px; opacity: 1;"/><text fill="currentColor" x="-9" dy="0.32em" style="fill: rgb(33, 33, 33); font-size: 9px; text-anchor: end; opacity: 1;">0.6</text></g><g class="tick" opacity="1" transform="translate(0,304.1)"><line stroke="currentColor" x2="-6" style="stroke: rgb(33, 33, 33); stroke-width: 1px; opacity: 1;"/><text fill="currentColor" x="-9" dy="0.32em" style="fill: rgb(33, 33, 33); font-size: 9px; text-anchor: end; opacity: 1;">0.8</text></g><g class="tick" opacity="1" transform="translate(0,276.50000000000006)"><line stroke="currentColor" x2="-6" style="stroke: rgb(33, 33, 33); stroke-width: 1px; opacity: 1;"/><text fill="currentColor" x="-9" dy="0.32em" style="fill: rgb(33, 33, 33); font-size: 9px; text-anchor: end; opacity: 1;">1.0</text></g><g class="tick" opacity="1" transform="translate(0,248.90000000000003)"><line stroke="currentColor" x2="-6" style="stroke: rgb(33, 33, 33); stroke-width: 1px; opacity: 1;"/><text fill="currentColor" x="-9" dy="0.32em" style="fill: rgb(33, 33, 33); font-size: 9px; text-anchor: end; opacity: 1;">1.2</text></g><g class="tick" opacity="1" transform="translate(0,221.30000000000004)"><line stroke="currentColor" x2="-6" style="stroke: rgb(33, 33, 33); stroke-width: 1px; opacity: 1;"/><text fill="currentColor" x="-9" dy="0.32em" style="fill: rgb(33, 33, 33); font-size: 9px; text-anchor: end; opacity: 1;">1.4</text></g><g class="tick" opacity="1" transform="translate(0,193.70000000000002)"><line stroke="currentColor" x2="-6" style="stroke: rgb(33, 33, 33); stroke-width: 1px; opacity: 1;"/><text fill="currentColor" x="-9" dy="0.32em" style="fill: rgb(33, 33, 33); font-size: 9px; text-anchor: end; opacity: 1;">1.6</text></g><g class="tick" opacity="1" transform="translate(0,166.10000000000002)"><line stroke="currentColor" x2="-6" style="stroke: rgb(33, 33, 33); stroke-width: 1px; opacity: 1;"/><text fill="currentColor" x="-9" dy="0.32em" style="fill: rgb(33, 33, 33); font-size: 9px; text-anchor: end; opacity: 1;">1.8</text></g><g class="tick" opacity="1" transform="translate(0,138.50000000000003)"><line stroke="currentColor" x2="-6" style="stroke: rgb(33, 33, 33); stroke-width: 1px; opacity: 1;"/><text fill="currentColor" x="-9" dy="0.32em" style="fill: rgb(33, 33, 33); font-size: 9px; text-anchor: end; opacity: 1;">2.0</text></g><g class="tick" opacity="1" transform="translate(0,110.89999999999998)"><line stroke="currentColor" x2="-6" style="stroke: rgb(33, 33, 33); stroke-width: 1px; opacity: 1;"/><text fill="currentColor" x="-9" dy="0.32em" style="fill: rgb(33, 33, 33); font-size: 9px; text-anchor: end; opacity: 1;">2.2</text></g><g class="tick" opacity="1" transform="translate(0,83.30000000000003)"><line stroke="currentColor" x2="-6" style="stroke: rgb(33, 33, 33); stroke-width: 1px; opacity: 1;"/><text fill="currentColor" x="-9" dy="0.32em" style="fill: rgb(33, 33, 33); font-size: 9px; text-anchor: end; opacity: 1;">2.4</text></g><g class="tick" opacity="1" transform="translate(0,55.69999999999999)"><line stroke="currentColor" x2="-6" style="stroke: rgb(33, 33, 33); stroke-width: 1px; opacity: 1;"/><text fill="currentColor" x="-9" dy="0.32em" style="fill: rgb(33, 33, 33); font-size: 9px; text-anchor: end; opacity: 1;">2.6</text></g><g class="tick" opacity="1" transform="translate(0,28.10000000000004)"><line stroke="currentColor" x2="-6" style="stroke: rgb(33, 33, 33); stroke-width: 1px; opacity: 1;"/><text fill="currentColor" x="-9" dy="0.32em" style="fill: rgb(33, 33, 33); font-size: 9px; text-anchor: end; opacity: 1;">2.8</text></g><g class="tick" opacity="1" transform="translate(0,0.5)"><line stroke="currentColor" x2="-6" style="stroke: rgb(33, 33, 33); stroke-width: 1px; opacity: 1;"/><text fill="currentColor" x="-9" dy="0.32em" style="fill: rgb(33, 33, 33); font-size: 9px; text-anchor: end; opacity: 1;">3.0</text></g></g>
    <text class="yAxisLabel" text-anchor="middle" transform="translate(-24,207) rotate(-90)" style="fill: rgb(33, 33, 33); font-size: 9px; text-anchor: middle; opacity: 1;">Utilization</text>
    <g class="xAxis" transform="translate(0, 414)" fill="none" font-size="10" font-family="sans-serif" text-anchor="middle"><path class="domain" stroke="currentColor" d="M0.5,6V0.5H854.5V6" style="fill: none; stroke: rgb(33, 33, 33); stroke-width: 1px; opacity: 1;"/><g class="tick" opacity="1" transform="translate(33.11260267255118,0)"><line stroke="currentColor" y2="6" style="stroke: rgb(33, 33, 33); stroke-width: 1px; opacity: 1;"/><text fill="currentColor" y="9" dy="0.71em" style="fill: rgb(33, 33, 33); font-size: 9px; text-anchor: middle; opacity: 1;">1,000,000</text></g><g class="tick" opacity="1" transform="translate(107.89499816108862,0)"><line stroke="currentColor" y2="6" style="stroke: rgb(33, 33, 33); stroke-width: 1px; opacity: 1;"/><text fill="currentColor" y="9" dy="0.71em" style="fill: rgb(33, 33, 33); font-size: 9px; text-anchor: middle; opacity: 1;">1,100,000</text></g><g class="tick" opacity="1" transform="translate(182.67739364962608,0)"><line stroke="currentColor" y2="6" style="stroke: rgb(33, 33, 33); stroke-width: 1px; opacity: 1;"/><text fill="currentColor" y="9" dy="0.71em" style="fill: rgb(33, 33, 33); font-size: 9px; text-anchor: middle; opacity: 1;">1,200,000</text></g><g class="tick" opacity="1" transform="translate(257.45978913816356,0)"><line stroke="currentColor" y2="6" style="stroke: rgb(33, 33, 33); stroke-width: 1px; opacity: 1;"/><text fill="currentColor" y="9" dy="0.71em" style="fill: rgb(33, 33, 33); font-size: 9px; text-anchor: middle; opacity: 1;">1,300,000</text></g><g class="tick" opacity="1" transform="translate(332.242184626701,0)"><line stroke="currentColor" y2="6" style="stroke: rgb(33, 33, 33); stroke-width: 1px; opacity: 1;"/><text fill="currentColor" y="9" dy="0.71em" style="fill: rgb(33, 33, 33); font-size: 9px; text-anchor: middle; opacity: 1;">1,400,000</text></g><g class="tick" opacity="1" transform="translate(407.02458011523845,0)"><line stroke="currentColor" y2="6" style="stroke: rgb(33, 33, 33); stroke-width: 1px; opacity: 1;"/><text fill="currentColor" y="9" dy="0.71em" style="fill: rgb(33, 33, 33); font-size: 9px; text-anchor: middle; opacity: 1;">1,500,000</text></g><g class="tick" opacity="1" transform="translate(481.8069756037759,0)"><line stroke="currentColor" y2="6" style="stroke: rgb(33, 33, 33); stroke-width: 1px; opacity: 1;"/><text fill="currentColor" y="9" dy="0.71em" style="fill: rgb(33, 33, 33); font-size: 9px; text-anchor: middle; opacity: 1;">1,600,000</text></g><g class="tick" opacity="1" transform="translate(556.5893710923133,0)"><line stroke="currentColor" y2="6" style="stroke: rgb(33, 33, 33); stroke-width: 1px; opacity: 1;"/><text fill="currentColor" y="9" dy="0.71em" style="fill: rgb(33, 33, 33); font-size: 9px; text-anchor: middle; opacity: 1;">1,700,000</text></g><g class="tick" opacity="1" transform="translate(631.3717665808508,0)"><line stroke="currentColor" y2="6" style="stroke: rgb(33, 33, 33); stroke-width: 1px; opacity: 1;"/><text fill="currentColor" y="9" dy="0.71em" style="fill: rgb(33, 33, 33); font-size: 9px; text-anchor: middle; opacity: 1;">1,800,000</text></g><g class="tick" opacity="1" transform="translate(706.1541620693882,0)"><line stroke="currentColor" y2="6" style="stroke: rgb(33, 33, 33); stroke-width: 1px; opacity: 1;"/><text fill="currentColor" y="9" dy="0.71em" style="fill: rgb(33, 33, 33); font-size: 9px; text-anchor: middle; opacity: 1;">1,900,000</text></g><g class="tick" opacity="1" transform="translate(780.9365575579257,0)"><line stroke="currentColor" y2="6" style="stroke: rgb(33, 33, 33); stroke-width: 1px; opacity: 1;"/><text fill="currentColor" y="9" dy="0.71em" style="fill: rgb(33, 33, 33); font-size: 9px; text-anchor: middle; opacity: 1;">2,000,000</text></g></g>
    <text class="xAxisLabel" text-anchor="middle" x="427" y="446" style="fill: rgb(33, 33, 33); font-size: 9px; text-anchor: middle; opacity: 1;">Time in Nanoseconds</text>
  </g>
  <g class="totalUtilization">
    <path class="area" d="M0,138.00000000000003L1,138.00000000000003L2,138.00000000000003L3,138.00000000000003L4,138.00000000000003L5,138.00000000000003L6,138.00000000000003L7,138.00000000000003L8,138.00000000000003L9,138.00000000000003L10,138.00000000000003L11,138.00000000000003L12,138.00000000000003L13,138.00000000000003L14,138.00000000000003L15,138.00000000000003L16,138.00000000000003L17,138.00000000000003L18,138.00000000000003L19,138.00000000000003L20,138.00000000000003L21,138.00000000000003L22,138.00000000000003L23,138.00000000000003L24,138.00000000000003L25,138.00000000000003L26,138.00000000000003L27,138.00000000000003L28,138.00000000000003L29,138.00000000000003L30,138.00000000000003L31,138.00000000000003L32,222.36771300448427L33,414L34,414L35,414L36,403.0590875093493L37,138.00000000000003L38,138.00000000000003L39,138.00000000000003L40,138.00000000000003L41,138.00000000000003L42,138.00000000000003L43,138.20643231114434L44,138.00000000000003L45,138.00000000000003L46,138.00000000000003L47,138.00000000000003L48,138.00000000000003L49,138.00000000000003L50,138.00000000000003L51,138.00000000000003L52,138.00000000000003L53,138.00000000000003L54,138.00000000000003L55,138.00000000000003L56,138.00000000000003L57,138.00000000000003L58,138.00000000000003L59,138.00000000000003L60,138.00000000000003L61,138.00000000000003L62,138.00000000000003L63,138.00000000000003L64,138.00000000000003L65,138.00000000000003L66,138.00000000000003L67,138.00000000000003L68,138.00000000000003L69,138.00000000000003L70,138.00000000000003L71,138.00000000000003L72,138.00000000000003L73,138.20643231114434L74,180.73148840688106L75,414L76,276.5160807778609L77,138.00000000000003L78,138.00000000000003L79,138.00000000000003L80,138.00000000000003L81,138.00000000000003L82,138.00000000000003L83,138.00000000000003L84,138.00000000000003L85,138.00000000000003L86,138.00000000000003L87,138.00000000000003L88,138.00000000000003L89,138.00000000000003L90,138.00000000000003L91,138.00000000000003L92,138.00000000000003L93,138.00000000000003L94,138.00000000000003L95,138.00000000000003L96,138.00000000000003L97,138.00000000000003L98,138.00000000000003L99,138.00000000000003L100,138.00000000000003L101,138.00000000000003L102,138.00000000000003L103,138.00000000000003L104,344.2258788332087L105,138.00000000000003L106,138.00000000000003L107,138.00000000000003L108,138.00000000000003L109,138.00000000000003L110,138.00000000000003L111,138.00000000000003L112,138.00000000000003L113,138.00000000000003L114,138.00000000000003L115,138.00000000000003L116,138.00000000000003L117,138.00000000000003L118,138.00000000000003L119,138.00000000000003L120,138.00000000000003L121,138.00000000000003L122,138.00000000000003L123,138.00000000000003L124,138.00000000000003L125,138.00000000000003L126,138.00000000000003L127,138.00000000000003L128,138.00000000000003L129,138.00000000000003L130,138.00000000000003L131,138.00000000000003L132,138.00000000000003L133,138.00000000000003L134,138.00000000000003L135,138.00000000000003L136,237.63228699551573L137,314.0867614061331L138,138.00000000000003L139,138.00000000000003L140,138.00000000000003L141,138.00000000000003L142,138.00000000000003L143,138.00000000000003L144,138.00000000000003L145,138.00000000000003L146,138.00000000000003L147,138.00000000000003L148,138.00000000000003L149,138.00000000000003L150,138.00000000000003L151,138.00000000000003L152,138.00000000000003L153,138.00000000000003L154,138.00000000000003L155,138.00000000000003L156,138.00000000000003L157,138.00000000000003L158,138.00000000000003L159,259.0852017937219L160,414L161,414L162,414L163,414L164,414L165,414L166,414L167,414L168,414L169,414L170,414L171,326.6791323859387L172,70.18698578908001L173,0L174,0L175,0L176,0L177,0L178,0L179,67.09050112191473L180,138.00000000000003L181,138.00000000000003L182,138.00000000000003L183,138.00000000000003L184,138.00000000000003L185,138.00000000000003L186,138.00000000000003L187,138.00000000000003L188,138.00000000000003L189,138.00000000000003L190,138.00000000000003L191,138.00000000000003L192,138.00000000000003L193,138.00000000000003L194,138.00000000000003L195,138.00000000000003L196,4.335078534031418L197,0L198,0.7225130890052747L199,138.00000000000003L200,138.00000000000003L201,138.00000000000003L202,138.00000000000003L203,138.00000000000003L204,138.00000000000003L205,138.00000000000003L206,138.00000000000003L207,138.00000000000003L208,138.00000000000003L209,138.00000000000003L210,138.00000000000003L211,138.00000000000003L212,138.00000000000003L213,138.00000000000003L214,138.00000000000003L215,138.00000000000003L216,138.00000000000003L217,138.00000000000003L218,354.7539267015707L219,244.3126402393418L220,138.00000000000003L221,138.00000000000003L222,138.00000000000003L223,138.00000000000003L224,138.00000000000003L225,138.00000000000003L226,138.00000000000003L227,138.00000000000003L228,138.00000000000003L229,138.00000000000003L230,138.00000000000003L231,138.00000000000003L232,138.00000000000003L233,138.00000000000003L234,138.00000000000003L235,138.00000000000003L236,138.00000000000003L237,138.00000000000003L238,138.00000000000003L239,138.00000000000003L240,138.00000000000003L241,138.00000000000003L242,138.00000000000003L243,138.00000000000003L244,138.00000000000003L245,138.00000000000003L246,138.00000000000003L247,138.00000000000003L248,138.00000000000003L249,138.00000000000003L250,138.00000000000003L251,138.00000000000003L252,138.00000000000003L253,138.00000000000003L254,138.00000000000003L255,138.00000000000003L256,138.00000000000003L257,138.00000000000003L258,138.00000000000003L259,138.00000000000003L260,138.00000000000003L261,138.00000000000003L262,138.00000000000003L263,138.00000000000003L264,138.00000000000003L265,138.00000000000003L266,138.00000000000003L267,138.00000000000003L268,138.00000000000003L269,138.00000000000003L270,138.00000000000003L271,138.00000000000003L272,138.00000000000003L273,138.00000000000003L274,138.00000000000003L275,138.00000000000003L276,138.00000000000003L277,138.00000000000003L278,138.00000000000003L279,138.00000000000003L280,138.00000000000003L281,138.00000000000003L282,138.00000000000003L283,138.00000000000003L284,138.00000000000003L285,138.00000000000003L286,138.00000000000003L287,138.00000000000003L288,138.00000000000003L289,138.00000000000003L290,138.00000000000003L291,138.00000000000003L292,355.1667913238594L293,4.128646222887041L294,0L295,0L296,0L297,0L298,0L299,0L300,0L301,0L302,0L303,0L304,0L305,0L306,0L307,0L308,0L309,0L310,0L311,0L312,0L313,0L314,0L315,0L316,0L317,0L318,0L319,0L320,0L321,0L322,0L323,0L324,0L325,0L326,0L327,0L328,0L329,0L330,0L331,0L332,0L333,0L334,0L335,0L336,0L337,0L338,0L339,0L340,0L341,0L342,0L343,0L344,0L345,0L346,0L347,0L348,0L349,0L350,0L351,0L352,0L353,0L354,0L355,0L356,0L357,0L358,0L359,0L360,0L361,0L362,0L363,0L364,0L365,0L366,0L367,0L368,0L369,0L370,0L371,0L372,0L373,0L374,0L375,0L376,0L377,0L378,0L379,0L380,0L381,0L382,0L383,0L384,0L385,0L386,0L387,0L388,0L389,0L390,0L391,0L392,0L393,0L394,0L395,0L396,0L397,0L398,0L399,0L400,0L401,0L402,0L403,0L404,0L405,0L406,0L407,0L408,0L409,0L410,0L411,0L412,0L413,0L414,0L415,0L416,0L417,0L418,0L419,0L420,0L421,0L422,0L423,0L424,0L425,0L426,0L427,0L428,0L429,0L430,0L431,0L432,0L433,0L434,0L435,0L436,0L437,0L438,0L439,0L440,0L441,0L442,0L443,0L444,0L445,0L446,0L447,0L448,0L449,0L450,0L451,0L452,0L453,0L454,0L455,0L456,0L457,0L458,0L459,0L460,0L461,0L462,0L463,0L464,0L465,0L466,0L467,0L468,0L469,0L470,0L471,0L472,0L473,0L474,0L475,0L476,0L477,0L478,0L479,0L480,0L481,0L482,0L483,0L484,0L485,0L486,0L487,0L488,0L489,0L490,0L491,0L492,0L493,0L494,0L495,0L496,0L497,0L498,0L499,0L500,0L501,0L502,0L503,0L504,0L505,0L506,0L507,0L508,0L509,0L510,0L511,0L512,0L513,0L514,0L515,0L516,0L517,0L518,0L519,0L520,0L521,0L522,0L523,0L524,0L525,0L526,0L527,0L528,0L529,0L530,0L531,0L532,0L533,0L534,0L535,0L536,0L537,0L538,0L539,0L540,0L541,0L542,0L543,0L544,0L545,0L546,0L547,0L548,0L549,0L550,0L551,0L552,0L553,0L554,0L555,0L556,0L557,0L558,0L559,0L560,0L561,0L562,0L563,0L564,0L565,0L566,0L567,0L568,0L569,0L570,0L571,0L572,0L573,0L574,0L575,0L576,0L577,0L578,0L579,0L580,0L581,0L582,0L583,0L584,0L585,0L586,0L587,0L588,0L589,0L590,0L591,0L592,0L593,0L594,0L595,0L596,0L597,0L598,0L599,0L600,0L601,0L602,0L603,0L604,0L605,0L606,0L607,0L608,0L609,0L610,0L611,0L612,232.2363500373972L613,276.00000000000006L614,276.00000000000006L615,276.00000000000006L616,284.773373223635L617,276.00000000000006L618,276.00000000000006L619,409.9775784753363L620,414L621,414L622,414L623,414L624,414L625,414L626,414L627,414L628,414L629,414L630,414L631,414L632,414L633,414L634,414L635,414L636,414L637,414L638,414L639,414L640,414L641,414L642,414L643,414L644,414L645,414L646,414L647,414L648,414L649,414L650,414L651,414L652,414L653,414L654,414L655,414L656,414L657,414L658,414L659,414L660,321.10545998504114L661,276.00000000000006L662,284.15407629020194L663,414L664,414L665,414L666,414L667,414L668,414L669,414L670,414L671,414L672,414L673,414L674,414L675,414L676,414L677,414L678,414L679,414L680,414L681,414L682,414L683,414L684,414L685,414L686,414L687,414L688,285.2894540014959L689,276.00000000000006L690,276.00000000000006L691,276.00000000000006L692,276.00000000000006L693,276.00000000000006L694,276.00000000000006L695,345.4644727000748L696,414L697,414L698,414L699,414L700,414L701,414L702,414L703,414L704,414L705,414L706,414L707,414L708,414L709,414L710,414L711,414L712,414L713,414L714,414L715,414L716,414L717,414L718,414L719,414L720,414L721,414L722,414L723,414L724,414L725,414L726,414L727,414L728,414L729,414L730,414L731,414L732,414L733,414L734,414L735,414L736,414L737,414L738,414L739,414L740,414L741,414L742,414L743,414L744,414L745,414L746,414L747,414L748,414L749,414L750,414L751,414L752,414L753,414L754,414L755,414L756,414L757,414L758,414L759,414L760,414L761,414L762,414L763,414L764,414L765,414L766,414L767,414L768,414L769,414L770,414L771,414L772,414L773,414L774,414L775,414L776,414L777,414L778,414L779,414L780,414L781,414L782,414L783,414L784,414L785,414L786,414L787,414L788,414L789,414L790,414L791,414L792,414L793,414L794,414L795,414L796,414L797,414L798,414L799,414L800,414L801,414L802,414L803,414L804,414L805,414L806,414L807,414L808,414L809,414L810,414L811,414L812,414L813,414L814,414L815,414L816,414L817,414L818,414L819,414L820,414L821,414L822,414L823,414L824,414L825,414L826,414L827,414L828,414L829,414L830,414L831,414L832,414L833,414L834,414L835,414L836,414L837,414L838,414L839,414L840,414L841,414L842,414L843,414L844,414L845,414L846,414L847,414L848,414L849,414L850,414L851,345.8773373223635L852,276.00000000000006L853,276.00000000000006L853,414L852,414L851,414L850,414L849,414L848,414L847,414L846,414L845,414L844,414L843,414L842,414L841,414L840,414L839,414L838,414L837,414L836,414L835,414L834,414L833,414L832,414L831,414L830,414L829,414L828,414L827,414L826,414L825,414L824,414L823,414L822,414L821,414L820,414L819,414L818,414L817,414L816,414L815,414L814,414L813,414L812,414L811,414L810,414L809,414L808,414L807,414L806,414L805,414L804,414L803,414L802,414L801,414L800,414L799,414L798,414L797,414L796,414L795,414L794,414L793,414L792,414L791,414L790,414L789,414L788,414L787,414L786,414L785,414L784,414L783,414L782,414L781,414L780,414L779,414L778,414L777,414L776,414L775,414L774,414L773,414L772,414L771,414L770,414L769,414L768,414L767,414L766,414L765,414L764,414L763,414L762,414L761,414L760,414L759,414L758,414L757,414L756,414L755,414L754,414L753,414L752,414L751,414L750,414L749,414L748,414L747,414L746,414L745,414L744,414L743,414L742,414L741,414L740,414L739,414L738,414L737,414L736,414L735,414L734,414L733,414L732,414L731,414L730,414L729,414L728,414L727,414L726,414L725,414L724,414L723,414L722,414L721,414L720,414L719,414L718,414L717,414L716,414L715,414L714,414L713,414L712,414L711,414L710,414L709,414L708,414L707,414L706,414L705,414L704,414L703,414L702,414L701,414L700,414L699,414L698,414L697,414L696,414L695,414L694,414L693,414L692,414L691,414L690,414L689,414L688,414L687,414L686,414L685,414L684,414L683,414L682,414L681,414L680,414L679,414L678,414L677,414L676,414L675,414L674,414L673,414L672,414L671,414L670,414L669,414L668,414L667,414L666,414L665,414L664,414L663,414L662,414L661,414L660,414L659,414L658,414L657,414L656,414L655,414L654,414L653,414L652,414L651,414L650,414L649,414L648,414L647,414L646,414L645,414L644,414L643,414L642,414L641,414L640,414L639,414L638,414L637,414L636,414L635,414L634,414L633,414L632,414L631,414L630,414L629,414L628,414L627,414L626,414L625,414L624,414L623,414L622,414L621,414L620,414L619,414L618,414L617,414L616,414L615,414L614,414L613,414L612,414L611,414L610,414L609,414L608,414L607,414L606,414L605,414L604,414L603,414L602,414L601,414L600,414L599,414L598,414L597,414L596,414L595,414L594,414L593,414L592,414L591,414L590,414L589,414L588,414L587,414L586,414L585,414L584,414L583,414L582,414L581,414L580,414L579,414L578,414L577,414L576,414L575,414L574,414L573,414L572,414L571,414L570,414L569,414L568,414L567,414L566,414L565,414L564,414L563,414L562,414L561,414L560,414L559,414L558,414L557,414L556,414L555,414L554,414L553,414L552,414L551,414L550,414L549,414L548,414L547,414L546,414L545,414L544,414L543,414L542,414L541,414L540,414L539,414L538,414L537,414L536,414L535,414L534,414L533,414L532,414L531,414L530,414L529,414L528,414L527,414L526,414L525,414L524,414L523,414L522,414L521,414L520,414L519,414L518,414L517,414L516,414L515,414L514,414L513,414L512,414L511,414L510,414L509,414L508,414L507,414L506,414L505,414L504,414L503,414L502,414L501,414L500,414L499,414L498,414L497,414L496,414L495,414L494,414L493,414L492,414L491,414L490,414L489,414L488,414L487,414L486,414L485,414L484,414L483,414L482,414L481,414L480,414L479,414L478,414L477,414L476,414L475,414L474,414L473,414L472,414L471,414L470,414L469,414L468,414L467,414L466,414L465,414L464,414L463,414L462,414L461,414L460,414L459,414L458,414L457,414L456,414L455,414L454,414L453,414L452,414L451,414L450,414L449,414L448,414L447,414L446,414L445,414L444,414L443,414L442,414L441,414L440,414L439,414L438,414L437,414L436,414L435,414L434,414L433,414L432,414L431,414L430,414L429,414L428,414L427,414L426,414L425,414L424,414L423,414L422,414L421,414L420,414L419,414L418,414L417,414L416,414L415,414L414,414L413,414L412,414L411,414L410,414L409,414L408,414L407,414L406,414L405,414L404,414L403,414L402,414L401,414L400,414L399,414L398,414L397,414L396,414L395,414L394,414L393,414L392,414L391,414L390,414L389,414L388,414L387,414L386,414L385,414L384,414L383,414L382,414L381,414L380,414L379,414L378,414L377,414L376,414L375,414L374,414L373,414L372,414L371,414L370,414L369,414L368,414L367,414L366,414L365,414L364,414L363,414L362,414L361,414L360,414L359,414L358,414L357,414L356,414L355,414L354,414L353,414L352,414L351,414L350,414L349,414L348,414L347,414L346,414L345,414L344,414L343,414L342,414L341,414L340,414L339,414L338,414L337,414L336,414L335,414L334,414L333,414L332,414L331,414L330,414L329,414L328,414L327,414L326,414L325,414L324,414L323,414L322,414L321,414L320,414L319,414L318,414L317,414L316,414L315,414L314,414L313,414L312,414L311,414L310,414L309,414L308,414L307,414L306,414L305,414L304,414L303,414L302,414L301,414L300,414L299,414L298,414L297,414L296,414L295,414L294,414L293,414L292,414L291,414L290,414L289,414L288,414L287,414L286,414L285,414L284,414L283,414L282,414L281,414L280,414L279,414L278,414L277,414L276,414L275,414L274,414L273,414L272,414L271,414L270,414L269,414L268,414L267,414L266,414L265,414L264,414L263,414L262,414L261,414L260,414L259,414L258,414L257,414L256,414L255,414L254,414L253,414L252,414L251,414L250,414L249,414L248,414L247,414L246,414L245,414L244,414L243,414L242,414L241,414L240,414L239,414L238,414L237,414L236,414L235,414L234,414L233,414L232,414L231,414L230,414L229,414L228,414L227,414L226,414L225,414L224,414L223,414L222,414L221,414L220,414L219,414L218,414L217,414L216,414L215,414L214,414L213,414L212,414L211,414L210,414L209,414L208,414L207,414L206,414L205,414L204,414L203,414L202,414L201,414L200,414L199,414L198,414L197,414L196,414L195,414L194,414L193,414L192,414L191,414L190,414L189,414L188,414L187,414L186,414L185,414L184,414L183,414L182,414L181,414L180,414L179,414L178,414L177,414L176,414L175,414L174,414L173,414L172,414L171,414L170,414L169,414L168,414L167,414L166,414L165,414L164,414L163,414L162,414L161,414L160,414L159,414L158,414L157,414L156,414L155,414L154,414L153,414L152,414L151,414L150,414L149,414L148,414L147,414L146,414L145,414L144,414L143,414L142,414L141,414L140,414L139,414L138,414L137,414L136,414L135,414L134,414L133,414L132,414L131,414L130,414L129,414L128,414L127,414L126,414L125,414L124,414L123,414L122,414L121,414L120,414L119,414L118,414L117,414L116,414L115,414L114,414L113,414L112,414L111,414L110,414L109,414L108,414L107,414L106,414L105,414L104,414L103,414L102,414L101,414L100,414L99,414L98,414L97,414L96,414L95,414L94,414L93,414L92,414L91,414L90,414L89,414L88,414L87,414L86,414L85,414L84,414L83,414L82,414L81,414L80,414L79,414L78,414L77,414L76,414L75,414L74,414L73,414L72,414L71,414L70,414L69,414L68,414L67,414L66,414L65,414L64,414L63,414L62,414L61,414L60,414L59,414L58,414L57,414L56,414L55,414L54,414L53,414L52,414L51,414L50,414L49,414L48,414L47,414L46,414L45,414L44,414L43,414L42,414L41,414L40,414L39,414L38,414L37,414L36,414L35,414L34,414L33,414L32,414L31,414L30,414L29,414L28,414L27,414L26,414L25,414L24,414L23,414L22,414L21,414L20,414L19,414L18,414L17,414L16,414L15,414L14,414L13,414L12,414L11,414L10,414L9,414L8,414L7,414L6,414L5,414L4,414L3,414L2,414L1,414L0,414Z" style="fill: rgb(191, 191, 191); stroke: none; stroke-width: 1px; opacity: 1;"/>
    <path class="outline" d="M0,138.00000000000003L1,138.00000000000003L2,138.00000000000003L3,138.00000000000003L4,138.00000000000003L5,138.00000000000003L6,138.00000000000003L7,138.00000000000003L8,138.00000000000003L9,138.00000000000003L10,138.00000000000003L11,138.00000000000003L12,138.00000000000003L13,138.00000000000003L14,138.00000000000003L15,138.00000000000003L16,138.00000000000003L17,138.00000000000003L18,138.00000000000003L19,138.00000000000003L20,138.00000000000003L21,138.00000000000003L22,138.00000000000003L23,138.00000000000003L24,138.00000000000003L25,138.00000000000003L26,138.00000000000003L27,138.00000000000003L28,138.00000000000003L29,138.00000000000003L30,138.00000000000003L31,138.00000000000003L32,222.36771300448427L33,414L34,414L35,414L36,403.0590875093493L37,138.00000000000003L38,138.00000000000003L39,138.00000000000003L40,138.00000000000003L41,138.00000000000003L42,138.00000000000003L43,138.20643231114434L44,138.00000000000003L45,138.00000000000003L46,138.00000000000003L47,138.00000000000003L48,138.00000000000003L49,138.00000000000003L50,138.00000000000003L51,138.00000000000003L52,138.00000000000003L53,138.00000000000003L54,138.00000000000003L55,138.00000000000003L56,138.00000000000003L57,138.00000000000003L58,138.00000000000003L59,138.00000000000003L60,138.00000000000003L61,138.00000000000003L62,138.00000000000003L63,138.00000000000003L64,138.00000000000003L65,138.00000000000003L66,138.00000000000003L67,138.00000000000003L68,138.00000000000003L69,138.00000000000003L70,138.00000000000003L71,138.00000000000003L72,138.00000000000003L73,138.20643231114434L74,180.73148840688106L75,414L76,276.5160807778609L77,138.00000000000003L78,138.00000000000003L79,138.00000000000003L80,138.00000000000003L81,138.00000000000003L82,138.00000000000003L83,138.00000000000003L84,138.00000000000003L85,138.00000000000003L86,138.00000000000003L87,138.00000000000003L88,138.00000000000003L89,138.00000000000003L90,138.00000000000003L91,138.00000000000003L92,138.00000000000003L93,138.00000000000003L94,138.00000000000003L95,138.00000000000003L96,138.00000000000003L97,138.00000000000003L98,138.00000000000003L99,138.00000000000003L100,138.00000000000003L101,138.00000000000003L102,138.00000000000003L103,138.00000000000003L104,344.2258788332087L105,138.00000000000003L106,138.00000000000003L107,138.00000000000003L108,138.00000000000003L109,138.00000000000003L110,138.00000000000003L111,138.00000000000003L112,138.00000000000003L113,138.00000000000003L114,138.00000000000003L115,138.00000000000003L116,138.00000000000003L117,138.00000000000003L118,138.00000000000003L119,138.00000000000003L120,138.00000000000003L121,138.00000000000003L122,138.00000000000003L123,138.00000000000003L124,138.00000000000003L125,138.00000000000003L126,138.00000000000003L127,138.00000000000003L128,138.00000000000003L129,138.00000000000003L130,138.00000000000003L131,138.00000000000003L132,138.00000000000003L133,138.00000000000003L134,138.00000000000003L135,138.00000000000003L136,237.63228699551573L137,314.0867614061331L138,138.00000000000003L139,138.00000000000003L140,138.00000000000003L141,138.00000000000003L142,138.00000000000003L143,138.00000000000003L144,138.00000000000003L145,138.00000000000003L146,138.00000000000003L147,138.00000000000003L148,138.00000000000003L149,138.00000000000003L150,138.00000000000003L151,138.00000000000003L152,138.00000000000003L153,138.00000000000003L154,138.00000000000003L155,138.00000000000003L156,138.00000000000003L157,138.00000000000003L158,138.00000000000003L159,259.0852017937219L160,414L161,414L162,414L163,414L164,414L165,414L166,414L167,414L168,414L169,414L170,414L171,326.6791323859387L172,70.18698578908001L173,0L174,0L175,0L176,0L177,0L178,0L179,67.09050112191473L180,138.00000000000003L181,138.00000000000003L182,138.00000000000003L183,138.00000000000003L184,138.00000000000003L185,138.00000000000003L186,138.00000000000003L187,138.00000000000003L188,138.00000000000003L189,138.00000000000003L190,138.00000000000003L191,138.00000000000003L192,138.00000000000003L193,138.00000000000003L194,138.00000000000003L195,138.00000000000003L196,4.335078534031418L197,0L198,0.7225130890052747L199,138.00000000000003L200,138.00000000000003L201,138.00000000000003L202,138.00000000000003L203,138.00000000000003L204,138.00000000000003L205,138.00000000000003L206,138.00000000000003L207,138.00000000000003L208,138.00000000000003L209,138.00000000000003L210,138.00000000000003L211,138.00000000000003L212,138.00000000000003L213,138.00000000000003L214,138.00000000000003L215,138.00000000000003L216,138.00000000000003L217,138.00000000000003L218,354.7539267015707L219,244.3126402393418L220,138.00000000000003L221,138.00000000000003L222,138.00000000000003L223,138.00000000000003L224,138.00000000000003L225,138.00000000000003L226,138.00000000000003L227,138.00000000000003L228,138.00000000000003L229,138.00000000000003L230,138.00000000000003L231,138.00000000000003L232,138.00000000000003L233,138.00000000000003L234,138.00000000000003L235,138.00000000000003L236,138.00000000000003L237,138.00000000000003L238,138.00000000000003L239,138.00000000000003L240,138.00000000000003L241,138.00000000000003L242,138.00000000000003L243,138.00000000000003L244,138.00000000000003L245,138.00000000000003L246,138.00000000000003L247,138.00000000000003L248,138.00000000000003L249,138.00000000000003L250,138.00000000000003L251,138.00000000000003L252,138.00000000000003L253,138.00000000000003L254,138.00000000000003L255,138.00000000000003L256,138.00000000000003L257,138.00000000000003L258,138.00000000000003L259,138.00000000000003L260,138.00000000000003L261,138.00000000000003L262,138.00000000000003L263,138.00000000000003L264,138.00000000000003L265,138.00000000000003L266,138.00000000000003L267,138.00000000000003L268,138.00000000000003L269,138.00000000000003L270,138.00000000000003L271,138.00000000000003L272,138.00000000000003L273,138.00000000000003L274,138.00000000000003L275,138.00000000000003L276,138.00000000000003L277,138.00000000000003L278,138.00000000000003L279,138.00000000000003L280,138.00000000000003L281,138.00000000000003L282,138.00000000000003L283,138.00000000000003L284,138.00000000000003L285,138.00000000000003L286,138.00000000000003L287,138.00000000000003L288,138.00000000000003L289,138.00000000000003L290,138.00000000000003L291,138.00000000000003L292,355.1667913238594L293,4.128646222887041L294,0L295,0L296,0L297,0L298,0L299,0L300,0L301,0L302,0L303,0L304,0L305,0L306,0L307,0L308,0L309,0L310,0L311,0L312,0L313,0L314,0L315,0L316,0L317,0L318,0L319,0L320,0L321,0L322,0L323,0L324,0L325,0L326,0L327,0L328,0L329,0L330,0L331,0L332,0L333,0L334,0L335,0L336,0L337,0L338,0L339,0L340,0L341,0L342,0L343,0L344,0L345,0L346,0L347,0L348,0L349,0L350,0L351,0L352,0L353,0L354,0L355,0L356,0L357,0L358,0L359,0L360,0L361,0L362,0L363,0L364,0L365,0L366,0L367,0L368,0L369,0L370,0L371,0L372,0L373,0L374,0L375,0L376,0L377,0L378,0L379,0L380,0L381,0L382,0L383,0L384,0L385,0L386,0L387,0L388,0L389,0L390,0L391,0L392,0L393,0L394,0L395,0L396,0L397,0L398,0L399,0L400,0L401,0L402,0L403,0L404,0L405,0L406,0L407,0L408,0L409,0L410,0L411,0L412,0L413,0L414,0L415,0L416,0L417,0L418,0L419,0L420,0L421,0L422,0L423,0L424,0L425,0L426,0L427,0L428,0L429,0L430,0L431,0L432,0L433,0L434,0L435,0L436,0L437,0L438,0L439,0L440,0L441,0L442,0L443,0L444,0L445,0L446,0L447,0L448,0L449,0L450,0L451,0L452,0L453,0L454,0L455,0L456,0L457,0L458,0L459,0L460,0L461,0L462,0L463,0L464,0L465,0L466,0L467,0L468,0L469,0L470,0L471,0L472,0L473,0L474,0L475,0L476,0L477,0L478,0L479,0L480,0L481,0L482,0L483,0L484,0L485,0L486,0L487,0L488,0L489,0L490,0L491,0L492,0L493,0L494,0L495,0L496,0L497,0L498,0L499,0L500,0L501,0L502,0L503,0L504,0L505,0L506,0L507,0L508,0L509,0L510,0L511,0L512,0L513,0L514,0L515,0L516,0L517,0L518,0L519,0L520,0L521,0L522,0L523,0L524,0L525,0L526,0L527,0L528,0L529,0L530,0L531,0L532,0L533,0L534,0L535,0L536,0L537,0L538,0L539,0L540,0L541,0L542,0L543,0L544,0L545,0L546,0L547,0L548,0L549,0L550,0L551,0L552,0L553,0L554,0L555,0L556,0L557,0L558,0L559,0L560,0L561,0L562,0L563,0L564,0L565,0L566,0L567,0L568,0L569,0L570,0L571,0L572,0L573,0L574,0L575,0L576,0L577,0L578,0L579,0L580,0L581,0L582,0L583,0L584,0L585,0L586,0L587,0L588,0L589,0L590,0L591,0L592,0L593,0L594,0L595,0L596,0L597,0L598,0L599,0L600,0L601,0L602,0L603,0L604,0L605,0L606,0L607,0L608,0L609,0L610,0L611,0L612,232.2363500373972L613,276.00000000000006L614,276.00000000000006L615,276.00000000000006L616,284.773373223635L617,276.00000000000006L618,276.00000000000006L619,409.9775784753363L620,414L621,414L622,414L623,414L624,414L625,414L626,414L627,414L628,414L629,414L630,414L631,414L632,414L633,414L634,414L635,414L636,414L637,414L638,414L639,414L640,414L641,414L642,414L643,414L644,414L645,414L646,414L647,414L648,414L649,414L650,414L651,414L652,414L653,414L654,414L655,414L656,414L657,414L658,414L659,414L660,321.10545998504114L661,276.00000000000006L662,284.15407629020194L663,414L664,414L665,414L666,414L667,414L668,414L669,414L670,414L671,414L672,414L673,414L674,414L675,414L676,414L677,414L678,414L679,414L680,414L681,414L682,414L683,414L684,414L685,414L686,414L687,414L688,285.2894540014959L689,276.00000000000006L690,276.00000000000006L691,276.00000000000006L692,276.00000000000006L693,276.00000000000006L694,276.00000000000006L695,345.4644727000748L696,414L697,414L698,414L699,414L700,414L701,414L702,414L703,414L704,414L705,414L706,414L707,414L708,414L709,414L710,414L711,414L712,414L713,414L714,414L715,414L716,414L717,414L718,414L719,414L720,414L721,414L722,414L723,414L724,414L725,414L726,414L727,414L728,414L729,414L730,414L731,414L732,414L733,414L734,414L735,414L736,414L737,414L738,414L739,414L740,414L741,414L742,414L743,414L744,414L745,414L746,414L747,414L748,414L749,414L750,414L751,414L752,414L753,414L754,414L755,414L756,414L757,414L758,414L759,414L760,414L761,414L762,414L763,414L764,414L765,414L766,414L767,414L768,414L769,414L770,414L771,414L772,414L773,414L774,414L775,414L776,414L777,414L778,414L779,414L780,414L781,414L782,414L783,414L784,414L785,414L786,414L787,414L788,414L789,414L790,414L791,414L792,414L793,414L794,414L795,414L796,414L797,414L798,414L799,414L800,414L801,414L802,414L803,414L804,414L805,414L806,414L807,414L808,414L809,414L810,414L811,414L812,414L813,414L814,414L815,414L816,414L817,414L818,414L819,414L820,414L821,414L822,414L823,414L824,414L825,414L826,414L827,414L828,414L829,414L830,414L831,414L832,414L833,414L834,414L835,414L836,414L837,414L838,414L839,414L840,414L841,414L842,414L843,414L844,414L845,414L846,414L847,414L848,414L849,414L850,414L851,345.8773373223635L852,276.00000000000006L853,276.00000000000006" style="fill: none; stroke: rgb(84, 84, 84); stroke-width: 1px; opacity: 1;"/>
  </g>
  <g class="selectionUtilization" style="display:none">
    <path class="area" style="fill: rgb(230, 171, 2); stroke: none; stroke-width: 1px; opacity: 1;"/>
    <path class="outline" style="fill: none; stroke: rgb(166, 123, 0); stroke-width: 1px; opacity: 1;"/>
  </g>
  <g class="brush">
    <rect class="area" x="0" y="0" width="854" height="414" style="fill: rgb(209, 209, 209); stroke: none; stroke-width: 1px; opacity: 0.25;"/>
    <line class="top outline" y1="0" y2="0" x1="0" x2="854" style="stroke: rgb(145, 145, 145); stroke-width: 1px; opacity: 1;"/>
    <line class="bottom outline" y1="414" y2="414" x1="0" x2="854" style="stroke: rgb(145, 145, 145); stroke-width: 1px; opacity: 1;"/>
    <g class="leftHandle">
      <line class="outline" x1="0" x2="0" y1="0" y2="414" style="stroke: rgb(145, 145, 145); stroke-width: 1px; opacity: 1;"/>
      <rect class="hoverTarget" x="-8" width="16" y="0" height="414" style="fill: rgba(0, 0, 0, 0); stroke: none; stroke-width: 1px; opacity: 1;"/>
    </g>
    <g class="rightHandle">
      <line class="outline" x1="854" x2="854" y1="0" y2="414" style="stroke: rgb(145, 145, 145); stroke-width: 1px; opacity: 1;"/>
      <rect class="hoverTarget" x="846" width="16" y="0" height="414" style="fill: rgba(0, 0, 0, 0); stroke: none; stroke-width: 1px; opacity: 1;"/>
    </g>
  </g>
</g>
</svg>